<svg id="sprites" width="96" height="32" viewBox="0 0 96 32" xmlns="http://www.w3.org/2000/svg">
  <defs>
    <path id="up" d="M7 6h1v1h1v1h1v1h1v1h-7v-1h1v-1h1v-1h1z" />
    <path id="down" d="M4 6h7v1h-1v1h-1v1h-1v1h-1v-1h-1v-1h-1v-1h-1z" />
    <path id="left" d="M8 4h1v7h-1v-1h-1v-1h-1v-1h-1v-1h1v-1h1v-1h1z" />
    <path id="right" d="M6 4h1v1h1v1h1v1h1v1h-1v1h-1v1h-1v1h-1z" />
    <path id="clear"
      d="M4 3h10v9h-10v-1h-1v-1h-1v-1h-1v-1h-1v-1h1v-1h1v-1h1v-1h1z M7 5v1h1v-1z M11 5v1h1v-1z M9 6h-1v1h1z M10 6v1h1v-1z M10 7h-1v1h1z M8 8v1h1v-1z M11 8h-1v1h1z M7 9v1h1v-1z M12 9h-1v1h1z" />
    <path id="calendar" d="M4 3h1v1h5v-1h1v1h1v8h-9v-8h1z M4 6v5h7v-5z M5 7h2v2h-2z" />
  </defs>

  <g fill="#000000">
    <use transform="translate(0, 0)" href="#up" />
    <use transform="translate(16, 0)" href="#down" />
    <use transform="translate(32, 0)" href="#left" />
    <use transform="translate(48, 0)" href="#right" />
    <use transform="translate(64, 0)" href="#clear" />
    <use transform="translate(80, 0)" href="#calendar" />
  </g>

  <g fill="#808080">
    <g transform="translate(0, 16)">
      <use x="1px" y="1px" fill="#ffffff" href="#up" />
      <use href="#up" />
    </g>
    <g transform="translate(16, 16)">
      <use x="1px" y="1px" fill="#ffffff" href="#down" />
      <use href="#down" />
    </g>
    <g transform="translate(32, 16)">
      <use x="1px" y="1px" fill="#ffffff" href="#left" />
      <use href="#left" />
    </g>
    <g transform="translate(48, 16)">
      <use x="1px" y="1px" fill="#ffffff" href="#right" />
      <use href="#right" />
    </g>
    <g transform="translate(64, 16)">
      <use x="1px" y="1px" fill="#ffffff" href="#clear" />
      <use href="#clear" />
    </g>
    <g transform="translate(80, 16)">
      <use x="1px" y="1px" fill="#ffffff" href="#calendar" />
      <use href="#calendar" />
    </g>
  </g>
</svg>
