<svg xmlns="http://www.w3.org/2000/svg" width="128" height="32">
  <filter id="f" width="128" height="32">
    <feOffset dx="0" dy="16" in="SourceGraphic" result="o1" />
    <feOffset dx="1" dy="17" in="SourceGraphic" result="o2" />
    <feFlood flood-color="rgb(128 128 128)" result="c1" />
    <feFlood flood-color="rgb(255 255 255)" result="c2" />
    <feComposite operator="in" in="c1" in2="o1" result="a" />
    <feComposite operator="in" in="c2" in2="o2" result="b" />
    <feMerge>
      <feMergeNode in="b" />
      <feMergeNode in="a" />
      <feMergeNode in="SourceGraphic" />
    </feMerge>
  </filter>
  <g style="fill:rgb(0 0 0);filter:url(#f)">
    <path style="translate:0px" d="M7 6h1v1h1v1h1v1h1v1h-7v-1h1v-1h1v-1h1z" />
    <path style="translate:16px" d="M4 6h7v1h-1v1h-1v1h-1v1h-1v-1h-1v-1h-1v-1h-1z" />
    <path style="translate:32px" d="M8 4h1v7h-1v-1h-1v-1h-1v-1h-1v-1h1v-1h1v-1h1z" />
    <path style="translate:48px" d="M6 4h1v1h1v1h1v1h1v1h-1v1h-1v1h-1v1h-1z" />
    <path style="translate:64px" d="M4 3h1v1h5v-1h1v1h1v8h-9v-8h1z M4 6v5h7v-5z M5 7h2v2h-2z" />
    <path style="translate:80px" d="M7 4h2v3h2v1h-1v1h-1v1h-2v-1h-1v-1h-1v-1h2z M3 9h1v2h8v-2h1v3h-10z" />
  </g>
</svg>
